<?xml version="1.0" ?><!DOCTYPE svg  PUBLIC '-//W3C//DTD SVG 1.1//EN'  'http://www.w3.org/Graphics/SVG/1.1/DTD/svg11.dtd'><svg enable-background="new 0 0 32 32" height="32px" id="Layer_1" version="1.1" viewBox="0 0 32 32" width="32px" xml:space="preserve" xmlns="http://www.w3.org/2000/svg" xmlns:xlink="http://www.w3.org/1999/xlink"><path d="M28.857,25.485L26,20.723V14c0-5.177-3.954-9.446-9-9.949V3c0-0.552-0.448-1-1-1s-1,0.448-1,1v2c0,0.552,0.448,1,1,1  c4.411,0,8,3.589,8,8v7c0,0.182,0.049,0.359,0.143,0.515L26.233,25H5.766l2.091-3.485C7.951,21.359,8,21.182,8,21v-7  c0-3.079,1.8-5.92,4.585-7.238c0.499-0.236,0.712-0.832,0.476-1.332c-0.236-0.499-0.832-0.712-1.332-0.476  C8.249,6.601,6,10.151,6,14v6.723l-2.857,4.763c-0.186,0.309-0.19,0.693-0.013,1.008C3.307,26.807,3.64,27,4,27h8.142  c0.447,1.721,2,3,3.858,3c1.859,0,3.411-1.279,3.858-3H28c0.36,0,0.692-0.193,0.87-0.507C29.048,26.179,29.043,25.794,28.857,25.485  z M16,28c-0.737,0-1.375-0.405-1.722-1h3.443C17.375,27.595,16.737,28,16,28z"/></svg>